<?xml version="1.0" encoding="UTF-8"?>
<svg id="Layer_2" data-name="Layer 2" xmlns="http://www.w3.org/2000/svg" viewBox="0 0 672 536.06">
  <defs>
    <style>
      .cls-1, .cls-2, .cls-3, .cls-4, .cls-5 {
        font-size: 12px;
      }

      .cls-1, .cls-6, .cls-7 {
        fill: #fff;
      }

      .cls-2, .cls-8 {
        letter-spacing: 0em;
      }

      .cls-9, .cls-10, .cls-11, .cls-12, .cls-13 {
        fill: #462864;
      }

      .cls-9, .cls-14, .cls-7, .cls-15, .cls-16, .cls-17, .cls-18 {
        font-size: 16px;
      }

      .cls-3, .cls-19 {
        letter-spacing: -.02em;
      }

      .cls-10 {
        font-size: 13.19px;
      }

      .cls-10, .cls-11, .cls-7, .cls-13, .cls-20 {
        font-family: GoogleSans-Bold, 'Google Sans';
        font-weight: 700;
      }

      .cls-11 {
        font-size: 12.42px;
      }

      .cls-21 {
        letter-spacing: 0em;
      }

      .cls-22 {
        letter-spacing: 0em;
      }

      .cls-23 {
        letter-spacing: 0em;
      }

      .cls-24, .cls-5 {
        letter-spacing: 0em;
      }

      .cls-25 {
        letter-spacing: 0em;
      }

      .cls-26 {
        fill: #e5e5f3;
      }

      .cls-27 {
        letter-spacing: 0em;
      }

      .cls-28 {
        letter-spacing: 0em;
      }

      .cls-29 {
        letter-spacing: 0em;
      }

      .cls-30 {
        letter-spacing: 0em;
      }

      .cls-31, .cls-18 {
        letter-spacing: 0em;
      }

      .cls-15, .cls-32 {
        letter-spacing: -.02em;
      }

      .cls-16, .cls-33 {
        letter-spacing: -.02em;
      }

      .cls-17 {
        letter-spacing: -.04em;
      }

      .cls-34 {
        letter-spacing: -.02em;
      }

      .cls-35 {
        letter-spacing: -.02em;
      }

      .cls-36 {
        letter-spacing: -.02em;
      }

      .cls-37 {
        letter-spacing: -.02em;
      }

      .cls-38 {
        letter-spacing: -.02em;
      }

      .cls-39 {
        letter-spacing: -.02em;
      }

      .cls-40 {
        letter-spacing: -.01em;
      }

      .cls-41 {
        letter-spacing: -.05em;
      }

      .cls-42 {
        letter-spacing: -.05em;
      }

      .cls-43 {
        letter-spacing: -.04em;
      }

      .cls-44 {
        letter-spacing: -.04em;
      }

      .cls-45 {
        letter-spacing: -.03em;
      }

      .cls-46 {
        letter-spacing: -.03em;
      }

      .cls-47 {
        letter-spacing: 0em;
      }

      .cls-48 {
        letter-spacing: 0em;
      }

      .cls-49 {
        letter-spacing: 0em;
      }

      .cls-50 {
        letter-spacing: 0em;
      }

      .cls-51 {
        letter-spacing: 0em;
      }

      .cls-52 {
        letter-spacing: 0em;
      }

      .cls-53 {
        letter-spacing: 0em;
      }

      .cls-54 {
        letter-spacing: 0em;
      }

      .cls-55 {
        letter-spacing: 0em;
      }

      .cls-56 {
        letter-spacing: 0em;
      }

      .cls-57 {
        letter-spacing: -.01em;
      }

      .cls-58 {
        letter-spacing: -.01em;
      }

      .cls-59 {
        letter-spacing: -.01em;
      }

      .cls-60 {
        letter-spacing: -.01em;
      }

      .cls-61 {
        letter-spacing: 0em;
      }

      .cls-62 {
        letter-spacing: 0em;
      }

      .cls-63 {
        letter-spacing: 0em;
      }

      .cls-64 {
        letter-spacing: 0em;
      }

      .cls-65 {
        letter-spacing: 0em;
      }

      .cls-13 {
        font-size: 10.08px;
      }

      .cls-66 {
        letter-spacing: 0em;
      }
    </style>
  </defs>
  <g id="Layer_1-2" data-name="Layer 1">
    <rect class="cls-12" width="672" height="536.06"/>
    <text class="cls-7" transform="translate(174.86 49.91)"><tspan class="cls-35" x="0" y="0">Α</tspan><tspan x="11.15" y="0">ύξηση Βασι</tspan><tspan class="cls-62" x="97.42" y="0">κ</tspan><tspan class="cls-51" x="105.9" y="0">ο</tspan><tspan x="115.66" y="0">ύ Μ</tspan><tspan class="cls-51" x="143.33" y="0">ι</tspan><tspan x="147.66" y="0">σθ</tspan><tspan class="cls-51" x="168.88" y="0">ο</tspan><tspan x="178.64" y="0">ύ στ</tspan><tspan class="cls-33" x="210.11" y="0">η</tspan><tspan x="219.37" y="0">ν </tspan><tspan class="cls-33" x="232.37" y="0">Ε</tspan><tspan x="241.53" y="0">πι</tspan><tspan class="cls-62" x="257.96" y="0">χ</tspan><tspan x="266.38" y="0">εί</tspan><tspan class="cls-51" x="279.18" y="0">ρ</tspan><tspan x="289.17" y="0">ηση</tspan></text>
    <rect class="cls-6" x="30.29" y="61.63" width="611.08" height="126.33" rx="10.12" ry="10.12"/>
    <text class="cls-7" transform="translate(224.64 222.53)"><tspan x="0" y="0" xml:space="preserve"> Βασι</tspan><tspan class="cls-59" x="38.66" y="0">κ</tspan><tspan x="47.13" y="0">ά Κλι</tspan><tspan class="cls-53" x="85.09" y="0">μ</tspan><tspan class="cls-22" x="94.59" y="0">άκ</tspan><tspan class="cls-51" x="113.28" y="0">ι</tspan><tspan x="117.62" y="0">α Μ</tspan><tspan class="cls-51" x="145.81" y="0">ι</tspan><tspan x="150.14" y="0">σθωτών*</tspan></text>
    <rect class="cls-6" x="30.29" y="234.26" width="611.08" height="265.74" rx="14.68" ry="14.68"/>
    <g>
      <rect class="cls-26" x="43.63" y="74.32" width="287.09" height="101.19" rx="6.42" ry="6.42"/>
      <text class="cls-10" transform="translate(105.05 92.99)"><tspan x="0" y="0">Πρ</tspan><tspan class="cls-52" x="17.71" y="0">ο</tspan><tspan x="25.75" y="0">ϋπηρ</tspan><tspan class="cls-63" x="59.69" y="0">ε</tspan><tspan x="66.47" y="0">σ</tspan><tspan class="cls-49" x="74.79" y="0">ί</tspan><tspan x="78.36" y="0">α </tspan><tspan class="cls-61" x="89.73" y="0">έ</tspan><tspan class="cls-21" x="96.51" y="0">ως 2 </tspan><tspan class="cls-63" x="128.44" y="0">ε</tspan><tspan x="135.22" y="0">τών:</tspan></text>
      <rect class="cls-12" x="78.04" y="102.55" width="96.42" height="47.2" rx="6" ry="6"/>
      <rect class="cls-12" x="199.88" y="102.55" width="96.42" height="47.2" rx="6" ry="6"/>
      <text class="cls-7" transform="translate(97.21 121.62)"><tspan class="cls-42" x="0" y="0">Ά</tspan><tspan class="cls-38" x="10.75" y="0">γ</tspan><tspan x="20.06" y="0">α</tspan><tspan class="cls-56" x="30.11" y="0">μ</tspan><tspan x="39.62" y="0">ος </tspan><tspan class="cls-32" x="11.33" y="19.2">9</tspan><tspan x="20.27" y="19.2">60€</tspan></text>
      <text class="cls-7" transform="translate(214.17 121.62)"><tspan class="cls-32" x="0" y="0">Έ</tspan><tspan x="10.4" y="0">γ</tspan><tspan class="cls-33" x="20.03" y="0">γ</tspan><tspan x="29.34" y="0">α</tspan><tspan class="cls-56" x="39.39" y="0">μ</tspan><tspan x="48.9" y="0">ος</tspan><tspan x="7.67" y="19.2">1.</tspan><tspan class="cls-65" x="19.19" y="19.2">0</tspan><tspan x="29.83" y="19.2">20€</tspan></text>
    </g>
    <g>
      <rect class="cls-26" x="342.3" y="74.32" width="287.09" height="101.19" rx="6.42" ry="6.42"/>
      <text class="cls-10" transform="translate(403.73 92.99)"><tspan x="0" y="0">Πρ</tspan><tspan class="cls-52" x="17.71" y="0">ο</tspan><tspan x="25.75" y="0">ϋπηρ</tspan><tspan class="cls-63" x="59.69" y="0">ε</tspan><tspan x="66.47" y="0">σ</tspan><tspan class="cls-49" x="74.79" y="0">ί</tspan><tspan x="78.36" y="0">α άνω 2 </tspan><tspan class="cls-61" x="130.08" y="0">ε</tspan><tspan class="cls-21" x="136.86" y="0">τών:</tspan></text>
      <rect class="cls-12" x="376.72" y="102.55" width="96.42" height="47.2" rx="6" ry="6"/>
      <rect class="cls-12" x="498.56" y="102.55" width="96.42" height="47.2" rx="6" ry="6"/>
      <text class="cls-7" transform="translate(395.89 121.62)"><tspan class="cls-42" x="0" y="0">Ά</tspan><tspan class="cls-38" x="10.75" y="0">γ</tspan><tspan x="20.06" y="0">α</tspan><tspan class="cls-56" x="30.11" y="0">μ</tspan><tspan x="39.62" y="0">ος </tspan><tspan x="6.16" y="19.2">1000€</tspan></text>
      <text class="cls-7" transform="translate(512.85 121.62)"><tspan class="cls-32" x="0" y="0">Έ</tspan><tspan x="10.4" y="0">γ</tspan><tspan class="cls-33" x="20.03" y="0">γ</tspan><tspan x="29.34" y="0">α</tspan><tspan class="cls-56" x="39.39" y="0">μ</tspan><tspan x="48.9" y="0">ος</tspan><tspan x="7.41" y="19.2">1.060€</tspan></text>
    </g>
    <text class="cls-11" transform="translate(94.32 163.84)"><tspan x="0" y="0">από 900€</tspan></text>
    <text class="cls-13" transform="translate(85.38 250.93)"><tspan class="cls-44" x="0" y="0">*</tspan><tspan class="cls-41" x="4.27" y="0">Α</tspan><tspan class="cls-39" x="11.05" y="0">ν</tspan><tspan x="16.73" y="0">αγνω</tspan><tspan class="cls-50" x="43.33" y="0">ρ</tspan><tspan x="49.62" y="0">ίζ</tspan><tspan class="cls-58" x="57.67" y="0">ετ</tspan><tspan x="67.87" y="0">αι η δ</tspan><tspan class="cls-54" x="93.94" y="0">ι</tspan><tspan x="96.67" y="0">ανυθε</tspan><tspan class="cls-54" x="127.12" y="0">ί</tspan><tspan x="129.85" y="0">σα πρ</tspan><tspan class="cls-48" x="158.82" y="0">ο</tspan><tspan x="164.97" y="0">ϋπηρ</tspan><tspan class="cls-64" x="190.92" y="0">ε</tspan><tspan x="196.11" y="0">σ</tspan><tspan class="cls-54" x="202.47" y="0">ί</tspan><tspan class="cls-23" x="205.2" y="0">α </tspan><tspan class="cls-64" x="213.89" y="0">ε</tspan><tspan x="219.08" y="0">ν</tspan><tspan class="cls-57" x="224.9" y="0">τ</tspan><tspan x="229.91" y="0">ός της </tspan><tspan class="cls-64" x="263.44" y="0">ετ</tspan><tspan class="cls-23" x="273.63" y="0">αι</tspan><tspan class="cls-54" x="282.75" y="0">ρί</tspan><tspan class="cls-23" x="291.77" y="0">ας γ</tspan><tspan class="cls-54" x="312.26" y="0">ι</tspan><tspan x="314.99" y="0">α τ</tspan><tspan class="cls-36" x="328.79" y="0">η</tspan><tspan class="cls-23" x="334.63" y="0">ν π</tspan><tspan class="cls-64" x="350.39" y="0">ε</tspan><tspan class="cls-54" x="355.57" y="0">ρί</tspan><tspan x="364.6" y="0">οδο 14/2/2</tspan><tspan class="cls-64" x="417.3" y="0">0</tspan><tspan class="cls-66" x="424" y="0">1</tspan><tspan x="428.48" y="0">2 </tspan><tspan class="cls-57" x="436.45" y="0">έ</tspan><tspan class="cls-29" x="441.63" y="0">ως 1/1/2</tspan><tspan class="cls-64" x="482.28" y="0">0</tspan><tspan x="488.99" y="0">24</tspan></text>
    <text class="cls-11" transform="translate(216.88 163.84)"><tspan x="0" y="0">από </tspan><tspan class="cls-37" x="27.66" y="0">9</tspan><tspan x="34.61" y="0">60€</tspan></text>
    <text class="cls-11" transform="translate(393 163.84)"><tspan x="0" y="0">από </tspan><tspan class="cls-37" x="27.66" y="0">9</tspan><tspan x="34.61" y="0">60€</tspan></text>
    <text class="cls-11" transform="translate(510.36 163.84)"><tspan x="0" y="0">από 1.060€</tspan></text>
    <rect class="cls-12" x="44.61" y="260" width="192.26" height="40.12"/>
    <rect class="cls-12" x="239.87" y="260" width="192.26" height="40.12"/>
    <rect class="cls-12" x="435.13" y="260" width="192.26" height="40.12"/>
    <rect class="cls-26" x="44.61" y="303.12" width="192.26" height="40.12"/>
    <rect class="cls-26" x="239.87" y="303.12" width="192.26" height="40.12"/>
    <rect class="cls-26" x="435.13" y="303.12" width="192.26" height="40.12"/>
    <path class="cls-26" d="M234.87,348.24v36.12H46.61v-36.12h188.26M236.87,346.24H44.61v40.12h192.26v-40.12h0Z"/>
    <path class="cls-26" d="M430.13,348.24v36.12h-188.26v-36.12h188.26M432.13,346.24h-192.26v40.12h192.26v-40.12h0Z"/>
    <path class="cls-26" d="M625.39,348.24v36.12h-188.26v-36.12h188.26M627.39,346.24h-192.26v40.12h192.26v-40.12h0Z"/>
    <rect class="cls-26" x="44.61" y="389.36" width="192.26" height="40.12"/>
    <rect class="cls-26" x="239.87" y="389.36" width="192.26" height="40.12"/>
    <rect class="cls-26" x="435.13" y="389.36" width="192.26" height="40.12"/>
    <path class="cls-26" d="M234.87,434.48v36.12H46.61v-36.12h188.26M236.87,432.48H44.61v40.12h192.26v-40.12h0Z"/>
    <path class="cls-26" d="M430.13,434.48v36.12h-188.26v-36.12h188.26M432.13,432.48h-192.26v40.12h192.26v-40.12h0Z"/>
    <path class="cls-26" d="M625.39,434.48v36.12h-188.26v-36.12h188.26M627.39,432.48h-192.26v40.12h192.26v-40.12h0Z"/>
    <text class="cls-20" transform="translate(86.18 286.25)"><tspan class="cls-1"><tspan class="cls-19" x="0" y="0">Έ</tspan><tspan class="cls-24" x="7.8" y="0">τη πρ</tspan><tspan class="cls-51" x="40.44" y="0">ο</tspan><tspan x="47.76" y="0">ϋπηρ</tspan><tspan class="cls-8" x="78.65" y="0">ε</tspan><tspan x="84.82" y="0">σ</tspan><tspan class="cls-51" x="92.39" y="0">ί</tspan><tspan x="95.64" y="0">ας</tspan></tspan><tspan class="cls-9"><tspan x="26" y="43">0 </tspan><tspan class="cls-59" x="40.54" y="43">έ</tspan><tspan x="48.76" y="43">ως 3</tspan></tspan><tspan class="cls-9"><tspan x="26.76" y="86">3 </tspan><tspan class="cls-59" x="39.63" y="86">έ</tspan><tspan class="cls-31" x="47.85" y="86">ως 6</tspan></tspan><tspan class="cls-9"><tspan x="26.69" y="129">6 </tspan><tspan class="cls-65" x="39.7" y="129">έ</tspan><tspan class="cls-25" x="47.92" y="129">ως 9</tspan></tspan><tspan class="cls-9"><tspan x="18.86" y="172">9 </tspan><tspan class="cls-65" x="31.87" y="172">κ</tspan><tspan x="40.35" y="172">αι άνω</tspan></tspan></text>
    <text class="cls-20" transform="translate(262.98 286.25)"><tspan class="cls-1"><tspan x="0" y="0">Πρ</tspan><tspan class="cls-55" x="16.12" y="0">ο</tspan><tspan x="23.44" y="0">ϋπηρ</tspan><tspan class="cls-60" x="54.32" y="0">ε</tspan><tspan class="cls-30" x="60.49" y="0">σ</tspan><tspan class="cls-51" x="68.06" y="0">ί</tspan><tspan class="cls-24" x="71.32" y="0">α </tspan><tspan class="cls-8" x="81.66" y="0">έ</tspan><tspan x="87.83" y="0">ως 2 </tspan><tspan class="cls-8" x="116.89" y="0">ε</tspan><tspan x="123.06" y="0">τών</tspan></tspan><tspan class="cls-12"><tspan class="cls-16" x="22.41" y="43">9</tspan><tspan class="cls-18" x="31.35" y="43">60€ </tspan><tspan class="cls-4" x="65.78" y="43">από 900€</tspan></tspan><tspan class="cls-12"><tspan class="cls-15" x="25.19" y="86">9</tspan><tspan class="cls-14" x="34.13" y="86">68€ </tspan><tspan class="cls-5" x="67.15" y="86">από 913€</tspan></tspan><tspan class="cls-12"><tspan class="cls-14" x="17.7" y="129">1.056€ </tspan><tspan class="cls-4" x="73.03" y="129">από 9</tspan><tspan class="cls-3" x="106.71" y="129">9</tspan><tspan class="cls-4" x="113.42" y="129">6€</tspan></tspan><tspan class="cls-12"><tspan class="cls-14" x="14.43" y="172">1</tspan><tspan class="cls-17" x="21.37" y="172">.</tspan><tspan class="cls-14" x="25.31" y="172">144€ </tspan><tspan class="cls-4" x="66.65" y="172">από 1.</tspan><tspan class="cls-2" x="102.03" y="172">0</tspan><tspan class="cls-5" x="110.01" y="172">79€</tspan></tspan></text>
    <text class="cls-20" transform="translate(444.6 286.25)"><tspan class="cls-1"><tspan x="0" y="0">Πρ</tspan><tspan class="cls-47" x="16.12" y="0">ο</tspan><tspan class="cls-27" x="23.44" y="0">ϋπηρ</tspan><tspan class="cls-59" x="54.32" y="0">ε</tspan><tspan x="60.49" y="0">σ</tspan><tspan class="cls-55" x="68.06" y="0">ί</tspan><tspan x="71.32" y="0">α άνω των 2 </tspan><tspan class="cls-59" x="144.17" y="0">ε</tspan><tspan x="150.33" y="0">τών</tspan></tspan><tspan class="cls-9"><tspan x="19.87" y="43">1.000€ από </tspan><tspan class="cls-33" x="113.81" y="43">9</tspan><tspan class="cls-28" x="122.75" y="43">60€</tspan></tspan><tspan class="cls-9"><tspan x="19.87" y="86">1.000€ από </tspan><tspan class="cls-33" x="113.81" y="86">9</tspan><tspan class="cls-28" x="122.75" y="86">60€</tspan></tspan><tspan class="cls-9"><tspan x="22.12" y="129">1.056€ από 9</tspan><tspan class="cls-32" x="122.36" y="129">9</tspan><tspan x="131.3" y="129">6€</tspan></tspan><tspan class="cls-9"><tspan x="17.24" y="172">1</tspan><tspan class="cls-43" x="24.19" y="172">.</tspan><tspan class="cls-28" x="28.12" y="172">144€ από 1.</tspan><tspan class="cls-59" x="116.63" y="172">0</tspan><tspan x="127.27" y="172">79€</tspan></tspan></text>
    <text class="cls-13" transform="translate(146.72 491.05)"><tspan x="0" y="0">Ο </tspan><tspan class="cls-40" x="10.83" y="0">ν</tspan><tspan class="cls-50" x="16.51" y="0">ομ</tspan><tspan x="28.65" y="0">οθ</tspan><tspan class="cls-58" x="41.85" y="0">ε</tspan><tspan x="47.04" y="0">τημ</tspan><tspan class="cls-64" x="64.23" y="0">έ</tspan><tspan class="cls-39" x="69.41" y="0">ν</tspan><tspan x="75.09" y="0">ος </tspan><tspan class="cls-64" x="89.37" y="0">κ</tspan><tspan x="94.72" y="0">ατώ</tspan><tspan class="cls-57" x="114.53" y="0">τ</tspan><tspan x="119.54" y="0">α</tspan><tspan class="cls-64" x="125.87" y="0">τ</tspan><tspan class="cls-23" x="130.88" y="0">ος μ</tspan><tspan class="cls-54" x="151.21" y="0">ι</tspan><tspan x="153.94" y="0">σθός: 880€ (</tspan><tspan class="cls-46" x="215.8" y="0">Υ</tspan><tspan x="221.97" y="0">π</tspan><tspan class="cls-48" x="229.54" y="0">ο</tspan><tspan x="235.69" y="0">υ</tspan><tspan class="cls-64" x="241.69" y="0">ρ</tspan><tspan class="cls-29" x="247.93" y="0">γική</tspan><tspan class="cls-45" x="268.27" y="0"> </tspan><tspan class="cls-34" x="270.33" y="0">Α</tspan><tspan x="277.35" y="0">πόφαση 8.233/2</tspan><tspan class="cls-64" x="356.37" y="0">0</tspan><tspan class="cls-23" x="363.08" y="0">25)</tspan></text>
  </g>
</svg>